HIERARCHY
ROOT hip
{
  OFFSET 0 0 0
  CHANNELS 6 Xposition Yposition Zposition Zrotation Yrotation Xrotation
  JOINT abdomen
  {
    OFFSET 0 20.6881 -0.73152
    CHANNELS 3 Zrotation Xrotation Yrotation
    JOINT chest
    {
      OFFSET 0 11.7043 -0.48768
      CHANNELS 3 Zrotation Xrotation Yrotation
      JOINT neck
      {
        OFFSET 0 22.1894 -2.19456
        CHANNELS 3 Zrotation Xrotation Yrotation
        JOINT head
        {
          OFFSET -0.24384 7.07133 1.2192
          CHANNELS 3 Zrotation Xrotation Yrotation
          JOINT leftEye
          {
            OFFSET 4.14528 8.04674 8.04672
            CHANNELS 3 Zrotation Xrotation Yrotation
            End Site
            {
              OFFSET 1 0 0
            }
          }
          JOINT rightEye
          {
            OFFSET -3.6576 8.04674 8.04672
            CHANNELS 3 Zrotation Xrotation Yrotation
            End Site
            {
              OFFSET 1 0 0
            }
          }
        }
      }
      JOINT rCollar
      {
        OFFSET -2.68224 19.2634 -4.8768
        CHANNELS 3 Zrotation Xrotation Yrotation
        JOINT rShldr
        {
          OFFSET -8.77824 -1.95073 1.46304
          CHANNELS 3 Zrotation Xrotation Yrotation
          JOINT rForeArm
          {
            OFFSET -28.1742 -1.7115 0.48768
            CHANNELS 3 Zrotation Xrotation Yrotation
            JOINT rHand
            {
              OFFSET -22.5879 0.773209 7.07136
              CHANNELS 3 Zrotation Xrotation Yrotation
              JOINT rThumb1
              {
                OFFSET -1.2192 -0.487915 3.41376
                CHANNELS 3 Zrotation Xrotation Yrotation
                JOINT rThumb2
                {
                  OFFSET -3.37035 -0.52449 3.41376
                  CHANNELS 3 Zrotation Xrotation Yrotation
                  End Site
                  {
                    OFFSET -1.78271 -1.18214 1.43049
                  }
                }
              }
              JOINT rIndex1
              {
                OFFSET -7.75947 0.938293 5.60832
                CHANNELS 3 Zrotation Xrotation Yrotation
                JOINT rIndex2
                {
                  OFFSET -2.54057 -0.884171 1.56538
                  CHANNELS 3 Zrotation Xrotation Yrotation
                  End Site
                  {
                    OFFSET -1.62519 -0.234802 1.16502
                  }
                }
              }
              JOINT rMid1
              {
                OFFSET -8.24714 1.18213 3.41376
                CHANNELS 3 Zrotation Xrotation Yrotation
                JOINT rMid2
                {
                  OFFSET -3.10165 -0.590103 1.0647
                  CHANNELS 3 Zrotation Xrotation Yrotation
                  End Site
                  {
                    OFFSET -2.48547 -0.328903 0.83742
                  }
                }
              }
              JOINT rRing1
              {
                OFFSET -8.82822 0.546677 1.51678
                CHANNELS 3 Zrotation Xrotation Yrotation
                JOINT rRing2
                {
                  OFFSET -2.60934 -0.819778 -0.0198488
                  CHANNELS 3 Zrotation Xrotation Yrotation
                  End Site
                  {
                    OFFSET -2.33842 -0.294052 0.168128
                  }
                }
              }
              JOINT rPinky1
              {
                OFFSET -8.27202 -0.0477905 -0.4584
                CHANNELS 3 Zrotation Xrotation Yrotation
                JOINT rPinky2
                {
                  OFFSET -1.82734 -0.647385 -0.700984
                  CHANNELS 3 Zrotation Xrotation Yrotation
                  End Site
                  {
                    OFFSET -1.69225 -0.51767 -0.607171
                  }
                }
              }
            }
          }
        }
      }
      JOINT lCollar
      {
        OFFSET 2.68224 19.2634 -4.8768
        CHANNELS 3 Zrotation Xrotation Yrotation
        JOINT lShldr
        {
          OFFSET 8.77824 -1.95073 1.46304
          CHANNELS 3 Zrotation Xrotation Yrotation
          JOINT lForeArm
          {
            OFFSET 28.1742 -1.7115 0.48768
            CHANNELS 3 Zrotation Xrotation Yrotation
            JOINT lHand
            {
              OFFSET 22.5879 0.773209 7.07136
              CHANNELS 3 Zrotation Xrotation Yrotation
              JOINT lThumb1
              {
                OFFSET 1.2192 -0.487915 3.41376
                CHANNELS 3 Zrotation Xrotation Yrotation
                JOINT lThumb2
                {
                  OFFSET 3.37035 -0.52449 3.41376
                  CHANNELS 3 Zrotation Xrotation Yrotation
                  End Site
                  {
                    OFFSET 1.78271 -1.18214 1.43049
                  }
                }
              }
              JOINT lIndex1
              {
                OFFSET 7.75947 0.938293 5.60832
                CHANNELS 3 Zrotation Xrotation Yrotation
                JOINT lIndex2
                {
                  OFFSET 2.54057 -0.884171 1.56538
                  CHANNELS 3 Zrotation Xrotation Yrotation
                  End Site
                  {
                    OFFSET 1.62519 -0.234802 1.16502
                  }
                }
              }
              JOINT lMid1
              {
                OFFSET 8.24714 1.18213 3.41376
                CHANNELS 3 Zrotation Xrotation Yrotation
                JOINT lMid2
                {
                  OFFSET 3.10165 -0.590103 1.0647
                  CHANNELS 3 Zrotation Xrotation Yrotation
                  End Site
                  {
                    OFFSET 2.48547 -0.328903 0.83742
                  }
                }
              }
              JOINT lRing1
              {
                OFFSET 8.82822 0.546677 1.51678
                CHANNELS 3 Zrotation Xrotation Yrotation
                JOINT lRing2
                {
                  OFFSET 2.60934 -0.819778 -0.0198488
                  CHANNELS 3 Zrotation Xrotation Yrotation
                  End Site
                  {
                    OFFSET 2.33842 -0.294052 0.168128
                  }
                }
              }
              JOINT lPinky1
              {
                OFFSET 8.27202 -0.0477905 -0.4584
                CHANNELS 3 Zrotation Xrotation Yrotation
                JOINT lPinky2
                {
                  OFFSET 1.82734 -0.647385 -0.700984
                  CHANNELS 3 Zrotation Xrotation Yrotation
                  End Site
                  {
                    OFFSET 1.69225 -0.51767 -0.607171
                  }
                }
              }
            }
          }
        }
      }
    }
  }
  JOINT rButtock
  {
    OFFSET -8.77824 4.35084 1.2192
    CHANNELS 3 Zrotation Xrotation Yrotation
    JOINT rThigh
    {
      OFFSET 0 -1.70687 -2.19456
      CHANNELS 3 Zrotation Xrotation Yrotation
      JOINT rShin
      {
        OFFSET 0 -36.8199 0.73152
        CHANNELS 3 Zrotation Xrotation Yrotation
        JOINT rFoot
        {
          OFFSET 0.73152 -45.1104 -5.12064
          CHANNELS 3 Zrotation Xrotation Yrotation
          End Site
          {
            OFFSET -1.1221 -3.69964 12.103
          }
        }
      }
    }
  }
  JOINT lButtock
  {
    OFFSET 8.77824 4.35084 1.2192
    CHANNELS 3 Zrotation Xrotation Yrotation
    JOINT lThigh
    {
      OFFSET 0 -1.70687 -2.19456
      CHANNELS 3 Zrotation Xrotation Yrotation
      JOINT lShin
      {
        OFFSET 0 -36.8199 0.73152
        CHANNELS 3 Zrotation Xrotation Yrotation
        JOINT lFoot
        {
          OFFSET -0.73152 -45.1104 -5.12064
          CHANNELS 3 Zrotation Xrotation Yrotation
          End Site
          {
            OFFSET 1.1221 -3.69964 12.103
          }
        }
      }
    }
  }
}
MOTION
Frames:	8
Frame Time:	0.00833333
178.471 85.1731 -11.0139 0.0 0.0 0.0 0.512929 -0.0034181 0.0146931 0.141686 -0.00540191 0.0245502 6.09176e-15 0.0 5.59082e-17 1.83099e-14 3.18055e-15 1.55301e-16 -0.0 0.0 0.0 -0.0 0.0 0.0 2.98051e-15 -5.82377e-18 1.49089e-16 6.63905e-14 -3.10601e-16 1.59028e-15 1.10748e-12 -3.37338e-13 -3.18055e-15 1.26763e-11 3.00289e-13 1.11319e-13 2.99022e-11 -8.02957e-14 2.44903e-13 5.16335e-11 -1.43125e-13 4.19833e-13 2.99052e-11 -7.87187e-14 2.3218e-13 7.73091 5.47488 0.417314 2.99014e-11 -8.04084e-14 2.48083e-13 2.90554 0.965183 0.102902 2.99107e-11 -8.00108e-14 2.47288e-13 10.2786 0.731801 0.0259123 2.98966e-11 -7.79236e-14 2.54444e-13 2.22167 -0.733487 -0.20892 2.88384e-15 -6.60027e-18 -9.93923e-17 6.32574e-14 -2.11209e-16 -1.98785e-16 1.10703e-12 3.24218e-13 9.54166e-15 1.26762e-11 -3.68671e-13 1.145e-13 2.99032e-11 -9.60384e-14 2.44903e-13 5.16458e-11 -1.68569e-13 4.3176e-13 2.98988e-11 -9.54166e-14 2.57625e-13 -7.73091 5.47488 -0.417314 2.99024e-11 -9.58142e-14 2.48083e-13 -2.90554 0.965183 -0.102902 2.98967e-11 -9.6013e-14 2.48083e-13 -10.2786 0.731801 -0.0259123 2.99036e-11 -9.50191e-14 2.38542e-13 -2.22167 -0.733487 0.20892 -2.03217e-16 0.0 -3.88251e-19 0.860054 -4.41146 -0.0729722 -0.00213157 2.4394 -0.0112562 -0.474491 1.97259 0.0938441 2.03217e-16 0.0 3.88251e-19 -0.0776455 -2.42096 0.0232534 0.00766748 -1.16603 0.0659967 0.465732 3.58744 -0.125209
171.553 83.0602 -14.974 13.947 -77.0689 -13.9547 -1.9233 3.55785 1.07801 0.0393613 0.280101 0.195911 1.48715 2.05159 0.633566 0.00896259 -4.63472 1.01121 -0.0 0.0 0.0 -0.0 0.0 0.0 -1.17509e-14 -1.04242e-13 -1.27358e-14 22.4313 9.54919 0.742189 -4.85384 -2.3481 7.42027 0.0544373 -5.18164 -0.717534 3.03695e-10 -2.64415e-11 -2.03572e-10 5.26552e-10 -4.62511e-11 -3.47853e-10 3.03697e-10 -2.64381e-11 -2.03583e-10 7.73091 5.47488 0.417314 3.03694e-10 -2.64398e-11 -2.03569e-10 2.90554 0.965183 0.102902 3.03704e-10 -2.64386e-11 -2.03569e-10 10.2786 0.731801 0.0259123 3.03692e-10 -2.6438e-11 -2.03562e-10 2.22167 -0.733487 -0.20892 -1.18315e-14 -1.04242e-13 -1.29855e-14 -21.3226 8.39134 -3.78483 3.50309 -1.4678 -5.60359 -0.0139043 2.62916 -0.368122 1.74162e-10 -2.2321e-11 3.87643e-10 3.04252e-10 -3.97832e-11 6.68677e-10 1.74157e-10 -2.23211e-11 3.87653e-10 -7.73091 5.47488 -0.417314 1.7416e-10 -2.23217e-11 3.87646e-10 -2.90554 0.965183 -0.102902 1.74155e-10 -2.23221e-11 3.87645e-10 -10.2786 0.731801 -0.0259123 1.74164e-10 -2.232e-11 3.87639e-10 -2.22167 -0.733487 0.20892 -2.03217e-16 0.0 -3.88251e-19 -0.127629 -11.2591 -0.00724407 0.0378278 19.3767 0.239718 -1.21198 -1.24543 -5.58937 2.03217e-16 0.0 3.88251e-19 -3.03277 -4.944 -2.7191 -0.0414284 7.32264 -0.0974492 1.05009 -2.87279 5.40729
170.225 82.9604 -14.4901 13.8196 -76.8805 -13.0084 -4.64927 7.33028 2.2341 -0.0805692 0.584048 0.380976 3.0089 4.21845 1.30493 0.212502 -9.54796 2.10241 -0.0 0.0 0.0 -0.0 0.0 0.0 -2.7859e-14 -2.1807e-13 -2.73111e-14 45.8555 19.6597 1.61826 -9.34054 -4.70755 15.3211 -0.0315142 -10.6745 -1.49835 6.12666e-10 -6.01103e-11 -4.40456e-10 1.06253e-09 -1.0508e-10 -7.5276e-10 6.12665e-10 -6.01049e-11 -4.40466e-10 7.73091 5.47488 0.417314 6.12664e-10 -6.01065e-11 -4.40454e-10 2.90554 0.965183 0.102902 6.12674e-10 -6.01045e-11 -4.40453e-10 10.2786 0.731801 0.0259123 6.12665e-10 -6.01055e-11 -4.40447e-10 2.22167 -0.733487 -0.20892 -2.79206e-14 -2.18069e-13 -2.75627e-14 -42.6329 17.0259 -8.02996 6.84486 -2.93784 -11.4634 0.00846514 5.43843 -0.764125 3.24317e-10 -5.30684e-11 8.21723e-10 5.67438e-10 -9.42506e-11 1.41753e-09 3.24311e-10 -5.30694e-11 8.21731e-10 -7.73091 5.47488 -0.417314 3.24313e-10 -5.30702e-11 8.21727e-10 -2.90554 0.965183 -0.102902 3.2431e-10 -5.3071e-11 8.21724e-10 -10.2786 0.731801 -0.0259123 3.24321e-10 -5.30676e-11 8.21722e-10 -2.22167 -0.733487 0.20892 -2.03217e-16 0.0 -3.88251e-19 -1.18255 -18.4258 0.0352944 -0.121497 37.4343 0.601127 -2.6646 -4.50964 -11.5765 2.03217e-16 0.0 3.88251e-19 -6.42038 -7.70432 -5.63205 -0.0378464 16.3881 -0.277949 3.02562 -9.52798 11.3852
168.71 82.8772 -13.9611 13.8295 -76.7356 -12.9956 -7.19803 10.6654 3.2547 -0.170411 0.851073 0.538684 4.32468 6.15175 1.91049 0.52999 -13.8866 3.11482 -0.0 0.0 0.0 -0.0 0.0 0.0 -4.12137e-14 -3.12714e-13 -3.85056e-14 66.4642 28.6269 2.50169 -12.7779 -6.57274 22.3971 -0.238498 -15.535 -2.22513 8.51282e-10 -7.9164e-11 -6.11206e-10 1.47639e-09 -1.38467e-10 -1.0444e-09 8.51279e-10 -7.9157e-11 -6.11213e-10 7.73091 5.47488 0.417314 8.5128e-10 -7.91587e-11 -6.11203e-10 2.90554 0.965183 0.102902 8.5129e-10 -7.91559e-11 -6.11202e-10 10.2786 0.731801 0.0259123 8.51283e-10 -7.91581e-11 -6.11196e-10 2.22167 -0.733487 -0.20892 -4.12621e-14 -3.12714e-13 -3.87576e-14 -60.3833 24.7122 -12.3823 9.65972 -4.23521 -16.8526 0.0604577 7.88617 -1.11374 4.6268e-10 -6.6771e-11 1.16244e-09 8.09465e-10 -1.19013e-10 2.00517e-09 4.62673e-10 -6.67725e-11 1.16244e-09 -7.73091 5.47488 -0.417314 4.62674e-10 -6.67733e-11 1.16244e-09 -2.90554 0.965183 -0.102902 4.62673e-10 -6.67744e-11 1.16244e-09 -10.2786 0.731801 -0.0259123 4.62685e-10 -6.677e-11 1.16244e-09 -2.22167 -0.733487 0.20892 -2.03217e-16 0.0 -3.88251e-19 -2.05218 -24.9544 0.136987 -0.581281 53.246 1.1714 -4.58509 -7.36288 -17.097 2.03217e-16 0.0 3.88251e-19 -9.67452 -9.90404 -8.2979 0.0163101 24.2993 -0.462943 6.01047 -15.1677 17.063
167.037 82.9571 -13.4626 13.2059 -76.5121 -12.5128 -9.00459 12.9228 3.8863 -0.181174 1.02583 0.627942 5.22174 7.504 2.34227 0.769327 -16.8056 3.85145 -0.0 0.0 0.0 -0.0 0.0 0.0 -4.76852e-14 -3.59403e-13 -4.12478e-14 80.6879 34.7581 3.12507 -14.8492 -7.66044 27.2788 -0.455302 -18.8243 -2.74613 9.14014e-10 -6.16805e-11 -6.16617e-10 1.58493e-09 -1.0825e-10 -1.05286e-09 9.1401e-10 -6.16725e-11 -6.16624e-10 7.73091 5.47488 0.417314 9.14011e-10 -6.16745e-11 -6.16614e-10 2.90554 0.965183 0.102902 9.14022e-10 -6.1671e-11 -6.16613e-10 10.2786 0.731801 0.0259123 9.14016e-10 -6.16737e-11 -6.16608e-10 2.22167 -0.733487 -0.20892 -4.77346e-14 -3.59403e-13 -4.14963e-14 -71.6936 30.4294 -16.1218 11.7001 -5.24056 -21.0309 0.110356 9.43145 -1.33773 5.7156e-10 -3.78613e-11 1.26974e-09 9.98598e-10 -6.9511e-11 2.18978e-09 5.71554e-10 -3.78625e-11 1.26975e-09 -7.73091 5.47488 -0.417314 5.71554e-10 -3.78632e-11 1.26975e-09 -2.90554 0.965183 -0.102902 5.71553e-10 -3.78644e-11 1.26974e-09 -10.2786 0.731801 -0.0259123 5.71566e-10 -3.78597e-11 1.26974e-09 -2.22167 -0.733487 0.20892 -2.03217e-16 0.0 -3.88251e-19 -2.45267 -29.8877 0.392409 -1.2745 63.4471 1.9141 -6.42502 -9.4761 -21.3169 2.03217e-16 0.0 3.88251e-19 -12.0249 -10.7859 -10.2494 0.082678 29.3256 -0.619808 8.85016 -18.8773 21.3775
165.425 83.0212 -12.9706 12.6827 -76.2884 -11.9593 -9.64023 13.6834 3.92181 -0.0742379 1.06264 0.617275 5.5757 8.05179 2.52794 0.72776 -17.7393 4.15208 -0.0 0.0 0.0 -0.0 0.0 0.0 -4.40503e-14 -3.40112e-13 -3.23805e-14 86.3559 36.9275 3.14387 -15.5088 -7.96084 28.9898 -0.544454 -19.8898 -2.92227 7.01507e-10 2.16593e-11 -3.57791e-10 1.2157e-09 3.65365e-11 -6.08673e-10 7.01504e-10 2.16672e-11 -3.57796e-10 7.73091 5.47488 0.417314 7.01504e-10 2.16644e-11 -3.57785e-10 2.90554 0.965183 0.102902 7.01515e-10 2.1669e-11 -3.57786e-10 10.2786 0.731801 0.0259123 7.0151e-10 2.16668e-11 -3.57781e-10 2.22167 -0.733487 -0.20892 -4.41284e-14 -3.40113e-13 -3.26178e-14 -75.2594 33.755 -18.3287 12.8978 -5.93692 -23.5271 0.124582 9.72248 -1.3806 6.7576e-10 6.23062e-11 1.00713e-09 1.17663e-09 1.04035e-10 1.73538e-09 6.75756e-10 6.2307e-11 1.00713e-09 -7.73091 5.47488 -0.417314 6.75755e-10 6.23067e-11 1.00713e-09 -2.90554 0.965183 -0.102902 6.75753e-10 6.23056e-11 1.00712e-09 -10.2786 0.731801 -0.0259123 6.75767e-10 6.23096e-11 1.00712e-09 -2.22167 -0.733487 0.20892 -2.03217e-16 0.0 -3.88251e-19 -2.16106 -32.6688 0.840493 -1.56861 65.8935 2.2382 -7.62319 -10.7627 -23.6539 2.03217e-16 0.0 3.88251e-19 -12.8803 -9.94272 -11.1948 0.10235 30.4493 -0.70954 10.3067 -20.4245 23.3771
163.775 83.1078 -12.4758 12.1195 -76.0562 -11.3851 -9.41685 13.3765 3.52466 0.11665 1.00135 0.535423 5.55216 8.02524 2.53567 0.44585 -17.2589 4.12522 -0.0 0.0 0.0 -0.0 0.0 0.0 -3.32189e-14 -2.73638e-13 -1.52101e-14 85.9876 36.2697 2.67281 -15.2607 -7.78009 28.4218 -0.511401 -19.3701 -2.83842 2.93783e-10 1.51339e-10 8.82169e-11 5.07596e-10 2.61943e-10 1.56158e-10 2.93782e-10 1.51346e-10 8.82129e-11 7.73091 5.47488 0.417314 2.93778e-10 1.51342e-10 8.8227e-11 2.90554 0.965183 0.102902 2.93789e-10 1.51348e-10 8.82216e-11 10.2786 0.731801 0.0259123 2.93786e-10 1.51347e-10 8.82266e-11 2.22167 -0.733487 -0.20892 -3.33451e-14 -2.73641e-13 -1.54307e-14 -73.7002 35.4923 -19.1859 13.5512 -6.44481 -24.8142 0.108574 9.11739 -1.29295 7.74874e-10 2.1282e-10 4.82336e-10 1.34372e-09 3.65227e-10 8.28108e-10 7.74873e-10 2.12824e-10 4.82335e-10 -7.73091 5.47488 -0.417314 7.74872e-10 2.12824e-10 4.82334e-10 -2.90554 0.965183 -0.102902 7.74868e-10 2.12823e-10 4.8233e-10 -10.2786 0.731801 -0.0259123 7.74882e-10 2.12826e-10 4.82328e-10 -2.22167 -0.733487 0.20892 -2.03217e-16 0.0 -3.88251e-19 -1.37901 -33.9067 1.42669 -1.27889 62.7999 1.97733 -8.21902 -11.5341 -24.6133 2.03217e-16 0.0 3.88251e-19 -12.6219 -7.87851 -11.4222 0.0706103 28.7792 -0.740561 10.4637 -20.5738 23.5868
162.112 83.2033 -11.9766 11.5699 -75.821 -10.7791 -8.8581 12.6381 2.98405 0.332287 0.914863 0.431598 5.37829 7.75777 2.4663 0.0717478 -16.2288 3.95777 -0.0 0.0 0.0 -0.0 0.0 0.0 -2.02605e-14 -1.86434e-13 5.63935e-15 83.1456 34.4902 2.04204 -14.6556 -7.41295 26.9843 -0.43697 -18.2662 -2.66078 -1.45628e-10 2.76029e-10 5.56672e-10 -2.55508e-10 4.7876e-10 9.59322e-10 -1.45628e-10 2.76035e-10 5.56669e-10 7.73091 5.47488 0.417314 -1.45634e-10 2.76029e-10 5.56686e-10 2.90554 0.965183 0.102902 -1.45623e-10 2.76036e-10 5.56677e-10 10.2786 0.731801 0.0259123 -1.45627e-10 2.76037e-10 5.56682e-10 2.22167 -0.733487 -0.20892 -2.04303e-14 -1.8644e-13 5.43397e-15 -70.1891 36.5408 -19.4474 13.9745 -6.87594 -25.5631 0.0836388 8.14042 -1.15203 8.13403e-10 3.6491e-10 -7.82913e-11 1.40573e-09 6.29358e-10 -1.4068e-10 8.13405e-10 3.64917e-10 -7.82941e-11 -7.73091 5.47488 -0.417314 8.13403e-10 3.64918e-10 -7.82964e-11 -2.90554 0.965183 -0.102902 8.13397e-10 3.64918e-10 -7.82999e-11 -10.2786 0.731801 -0.0259123 8.13411e-10 3.64919e-10 -7.83053e-11 -2.22167 -0.733487 0.20892 -2.03217e-16 0.0 -3.88251e-19 -0.447093 -34.3923 2.11224 -0.881031 57.3409 1.60362 -8.53012 -12.118 -24.9652 2.03217e-16 0.0 3.88251e-19 -11.8977 -5.22144 -11.3101 0.0185676 25.7745 -0.739461 9.98937 -20.0575 23.0005
